# xmcd
#
# Track frame offsets:
#	150
#	16156
#	32508
#	48074
#	63421
#	79888
#	93396
#	108798
#	123777
#	137884
#	151439
#
# Disc length: 2241 seconds
#
# Revision: 2
# Processed by: cddbd v1.5.2PL0 Copyright (c) Steve Scherf et al.
# Submitted via: EasyCDDAExtractor 15.3.0.1
#
DISCID=7d08bf0b
DTITLE=RBD - Rebelde
DYEAR=2004
DGENRE=Latin
TTITLE0=Rebelde
TTITLE1=Solo Quedate En Silencio
TTITLE2=Otro Dia Que Va
TTITLE3=Un Poco De Tu Amor
TTITLE4=Enseñame
TTITLE5=Futuro Ex-Novio
TTITLE6=Tenerte Y Quererte
TTITLE7=Cuando El Amor Se Acaba
TTITLE8=Santa No Soy
TTITLE9=Fuego
TTITLE10=Salvame
EXTD=
EXTT0=
EXTT1=
EXTT2=
EXTT3=
EXTT4=
EXTT5=
EXTT6=
EXTT7=
EXTT8=
EXTT9=
EXTT10=
PLAYORDER=
